<svg width="25" height="24" viewBox="0 0 25 24" fill="none" xmlns="http://www.w3.org/2000/svg">
<path fill-rule="evenodd" clip-rule="evenodd" d="M16.3498 2.50065C16.9808 2.50065 17.6108 2.58965 18.2098 2.79065C21.9008 3.99065 23.2308 8.04065 22.1198 11.5806C21.4898 13.3896 20.4598 15.0406 19.1108 16.3896C17.1798 18.2596 15.0608 19.9196 12.7798 21.3496L12.5298 21.5006L12.2698 21.3396C9.98077 19.9196 7.84977 18.2596 5.90077 16.3796C4.56077 15.0306 3.52977 13.3896 2.88977 11.5806C1.75977 8.04065 3.08977 3.99065 6.82077 2.76965C7.11077 2.66965 7.40977 2.59965 7.70977 2.56065H7.82977C8.11077 2.51965 8.38977 2.50065 8.66977 2.50065H8.77977C9.40977 2.51965 10.0198 2.62965 10.6108 2.83065H10.6698C10.7098 2.84965 10.7398 2.87065 10.7598 2.88965C10.9808 2.96065 11.1898 3.04065 11.3898 3.15065L11.7698 3.32065C11.8616 3.36962 11.9647 3.44445 12.0537 3.50912C12.1102 3.55009 12.161 3.58699 12.1998 3.61065C12.2161 3.62028 12.2327 3.62996 12.2494 3.63972C12.3351 3.68977 12.4245 3.74191 12.4998 3.79965C13.6108 2.95065 14.9598 2.49065 16.3498 2.50065ZM19.0098 9.70065C19.4198 9.68965 19.7698 9.36065 19.7998 8.93965V8.82065C19.8298 7.41965 18.9808 6.15065 17.6898 5.66065C17.2798 5.51965 16.8298 5.74065 16.6798 6.16065C16.5398 6.58065 16.7598 7.04065 17.1798 7.18965C17.8208 7.42965 18.2498 8.06065 18.2498 8.75965V8.79065C18.2308 9.01965 18.2998 9.24065 18.4398 9.41065C18.5798 9.58065 18.7898 9.67965 19.0098 9.70065Z" fill="#5E5BE2"/>
</svg>
