<svg width="126" height="40" viewBox="0 0 126 40" fill="none" xmlns="http://www.w3.org/2000/svg">
<g clip-path="url(#clip0_1_2301)">
<path d="M89.361 37.225C90.12 37.225 90.569 36.65 90.569 35.751C90.569 34.819 90.087 34.277 89.377 34.277C88.971 34.277 88.689 34.457 88.478 34.743H88.468V33.27H88.028V37.143H88.468V36.775H88.478C88.706 37.089 88.982 37.225 89.361 37.225ZM89.329 36.856C88.733 36.856 88.44 36.385 88.44 35.756C88.44 35.15 88.722 34.651 89.334 34.651C89.865 34.651 90.12 35.128 90.12 35.756C90.12 36.39 89.865 36.856 89.329 36.856ZM91.312 38.07C91.653 38.07 91.87 37.95 92.097 37.37L93.295 34.342H92.829L92.189 36.087C92.103 36.32 92.005 36.634 92.005 36.634H91.995C91.995 36.634 91.891 36.32 91.805 36.087L91.144 34.342H90.667L91.761 37.062L91.653 37.338C91.545 37.609 91.42 37.68 91.236 37.68C91.1332 37.6852 91.0307 37.6646 90.938 37.62H90.916V38.01C91.036 38.059 91.144 38.07 91.312 38.07ZM94.418 37.143H95.155V33.27H94.418V37.143ZM96.957 37.225C97.818 37.225 98.409 36.585 98.409 35.756C98.409 34.927 97.819 34.288 96.957 34.288C96.096 34.288 95.505 34.928 95.505 35.756C95.505 36.586 96.095 37.225 96.957 37.225ZM96.957 36.661C96.502 36.661 96.253 36.298 96.253 35.756C96.253 35.215 96.502 34.846 96.957 34.846C97.407 34.846 97.661 35.215 97.661 35.756C97.661 36.298 97.407 36.661 96.957 36.661ZM99.976 38.091C100.388 38.091 100.745 37.994 100.978 37.777C101.184 37.587 101.309 37.322 101.309 36.932V34.364H100.599V34.657H100.588C100.42 34.424 100.166 34.288 99.818 34.288C99.115 34.288 98.616 34.819 98.616 35.648C98.616 36.488 99.223 36.975 99.841 36.975C100.193 36.975 100.404 36.835 100.566 36.65H100.583V36.954C100.583 37.333 100.383 37.534 99.965 37.534C99.624 37.534 99.467 37.398 99.407 37.224H98.676C98.751 37.766 99.217 38.091 99.976 38.091ZM99.966 36.385C99.586 36.385 99.336 36.109 99.336 35.637C99.336 35.171 99.586 34.879 99.96 34.879C100.404 34.879 100.621 35.225 100.621 35.632C100.621 36.044 100.431 36.385 99.965 36.385H99.966ZM103.1 37.225C103.961 37.225 104.552 36.585 104.552 35.756C104.552 34.927 103.961 34.288 103.1 34.288C102.238 34.288 101.648 34.928 101.648 35.756C101.648 36.586 102.238 37.225 103.1 37.225ZM103.1 36.661C102.645 36.661 102.395 36.298 102.395 35.756C102.395 35.215 102.645 34.846 103.1 34.846C103.549 34.846 103.804 35.215 103.804 35.756C103.804 36.298 103.549 36.661 103.1 36.661ZM104.894 37.143H105.631V34.364H104.894V37.143ZM104.894 33.931H105.631V33.27H104.894V33.931ZM106.106 38.053H106.843V36.83H106.853C107.011 37.069 107.265 37.226 107.655 37.226C108.37 37.226 108.858 36.656 108.858 35.757C108.858 34.89 108.387 34.289 107.65 34.289C107.489 34.2864 107.33 34.3237 107.188 34.3975C107.045 34.4713 106.923 34.5794 106.832 34.712H106.816V34.365H106.106V38.055V38.053ZM107.498 36.613C107.059 36.613 106.826 36.282 106.826 35.778C106.826 35.28 107.011 34.884 107.471 34.884C107.926 34.884 108.11 35.252 108.11 35.778C108.11 36.304 107.872 36.613 107.498 36.613ZM110.328 37.225C111.021 37.225 111.498 36.889 111.498 36.331C111.498 35.681 110.983 35.551 110.517 35.453C110.122 35.372 109.754 35.35 109.754 35.112C109.754 34.912 109.943 34.802 110.23 34.802C110.545 34.802 110.734 34.912 110.767 35.209H111.433C111.379 34.651 110.973 34.289 110.241 34.289C109.607 34.289 109.109 34.575 109.109 35.177C109.109 35.783 109.596 35.919 110.095 36.017C110.474 36.092 110.826 36.119 110.826 36.385C110.826 36.58 110.642 36.705 110.317 36.705C109.987 36.705 109.759 36.564 109.71 36.244H109.028C109.071 36.834 109.521 37.225 110.328 37.225ZM114.296 37.143V34.364H113.559V35.968C113.559 36.336 113.347 36.596 113.001 36.596C112.687 36.596 112.54 36.417 112.54 36.092V34.364H111.809V36.217C111.809 36.824 112.156 37.219 112.773 37.219C113.163 37.219 113.38 37.073 113.57 36.819H113.586V37.143H114.296ZM114.772 37.143H115.509V35.53C115.509 35.161 115.709 34.923 116.007 34.923C116.278 34.923 116.435 35.086 116.435 35.4V37.144H117.172V35.53C117.172 35.161 117.362 34.923 117.671 34.923C117.942 34.923 118.099 35.086 118.099 35.4V37.144H118.836V35.275C118.836 34.668 118.505 34.289 117.92 34.289C117.568 34.289 117.275 34.473 117.086 34.777H117.075C117.008 34.6294 116.9 34.5046 116.763 34.4178C116.626 34.3311 116.467 34.2863 116.305 34.289C116.142 34.2849 115.982 34.3245 115.84 34.4037C115.698 34.4828 115.58 34.5987 115.498 34.739H115.482V34.365H114.772V37.145V37.143Z" fill="#E5708C"/>
<path d="M118.981 2.14906C118.981 0.966061 119.94 0.00606055 121.123 0.00606055H122.552C123.12 0.00606055 123.665 0.23184 124.067 0.633731C124.469 1.03562 124.695 1.5807 124.695 2.14906C124.695 2.71742 124.469 3.2625 124.067 3.66439C123.665 4.06628 123.12 4.29206 122.552 4.29206H121.123C120.842 4.29206 120.563 4.23662 120.303 4.12891C120.043 4.02121 119.807 3.86334 119.608 3.66433C119.409 3.46532 119.251 3.22907 119.144 2.96908C119.036 2.70908 118.981 2.43044 118.981 2.14906ZM58.99 14.2901C58.99 22.1781 52.596 28.5731 44.707 28.5731C36.819 28.5731 30.424 22.1781 30.424 14.2901C30.424 6.40006 36.819 0.00706055 44.707 0.00706055C52.596 0.00706055 58.99 6.40006 58.99 14.2901ZM27.638 14.2191C28.428 14.2191 29.074 14.8591 28.995 15.6451C28.725 18.3349 27.6972 20.8929 26.0311 23.0217C24.3649 25.1505 22.1288 26.7628 19.5827 27.6712C17.0365 28.5796 14.2848 28.7467 11.6475 28.1532C9.01009 27.5596 6.59531 26.2298 4.68376 24.3183C2.77222 22.4067 1.4424 19.9919 0.848871 17.3546C0.255341 14.7172 0.422467 11.9655 1.33083 9.41936C2.23919 6.87321 3.85148 4.63712 5.98032 2.97097C8.10917 1.30482 10.6671 0.277035 13.357 0.00706055C14.142 -0.0729394 14.783 0.575061 14.783 1.36306V12.7901C14.783 13.5801 15.423 14.2191 16.212 14.2191H27.638ZM78.987 31.4301C80.1234 31.4301 81.2133 31.8815 82.0169 32.6851C82.8205 33.4887 83.272 34.5786 83.272 35.7151C83.272 36.8515 82.8205 37.9414 82.0169 38.745C81.2133 39.5486 80.1234 40.0001 78.987 40.0001H71.846C70.7095 40.0001 69.6196 39.5486 68.816 38.745C68.0124 37.9414 67.561 36.8515 67.561 35.7151C67.561 34.5786 68.0124 33.4887 68.816 32.6851C69.6196 31.8815 70.7095 31.4301 71.846 31.4301H78.987ZM74.702 28.5731C82.591 28.5731 88.986 22.1781 88.986 14.2901C88.9894 11.867 88.3736 9.48327 87.197 7.36506L89.557 5.00506C89.8288 4.73309 90.0444 4.41025 90.1915 4.05495C90.3385 3.69966 90.4142 3.31888 90.4141 2.93435C90.414 2.54983 90.3382 2.16908 90.1909 1.81386C90.0437 1.45864 89.8279 1.1359 89.556 0.864061C89.284 0.592224 88.9612 0.376618 88.6059 0.229551C88.2506 0.0824848 87.8698 0.00683844 87.4853 0.00693131C87.1007 0.00702417 86.72 0.0828544 86.3648 0.230092C86.0095 0.377331 85.6868 0.593093 85.415 0.865061L83.355 2.92506C80.8697 1.02697 77.8281 0.00102872 74.701 0.00606055C66.814 0.00706055 60.42 6.40006 60.42 14.2901C60.42 22.1781 66.814 28.5731 74.702 28.5731ZM118.981 14.2901C118.981 22.1781 112.586 28.5731 104.697 28.5731C96.809 28.5731 90.414 22.1781 90.414 14.2901C90.414 6.40006 96.809 0.00706055 104.697 0.00706055C112.586 0.00706055 118.981 6.40106 118.981 14.2901Z" fill="url(#paint0_linear_1_2301)"/>
</g>
<defs>
<linearGradient id="paint0_linear_1_2301" x1="0.499965" y1="16.0001" x2="119.5" y2="16.0001" gradientUnits="userSpaceOnUse">
<stop stop-color="#64C2DB"/>
<stop offset="0.307" stop-color="#7476ED"/>
<stop offset="0.604" stop-color="#C994DF"/>
<stop offset="1" stop-color="#E56F8C"/>
</linearGradient>
<clipPath id="clip0_1_2301">
<rect width="125" height="40" fill="white" transform="translate(0.5)"/>
</clipPath>
</defs>
</svg>
