<svg width="1096" height="1096" viewBox="0 0 1096 1096" fill="none" xmlns="http://www.w3.org/2000/svg">
<path d="M506.003 718.935L287.461 500.393C243.84 456.774 173.87 454.445 127.445 495.065L76.4694 540.651C75.6069 541.303 73.8813 545.664 73.8813 557.876C73.8813 819.543 286.007 1031.67 547.677 1031.67C711.696 1031.67 856.245 948.329 941.293 821.683L935.312 815.702L841.954 731.02C788.991 683.355 710.122 678.607 651.83 719.577L636.638 730.25C596.126 758.724 541.013 753.95 506.003 718.935Z" fill="#CDCDCD"/>
<path d="M700.504 496.719C756.778 496.719 802.395 451.103 802.395 394.828C802.395 338.555 756.778 292.937 700.504 292.937C644.229 292.937 598.612 338.555 598.612 394.828C598.612 451.103 644.229 496.719 700.504 496.719Z" fill="#CDCDCD"/>
<path fill-rule="evenodd" clip-rule="evenodd" d="M0 547.667C0 245.199 245.199 0 547.667 0C850.136 0 1095.33 245.199 1095.33 547.667C1095.33 850.136 850.136 1095.33 547.667 1095.33C245.199 1095.33 0 850.136 0 547.667ZM1005.13 434.05C1015.79 473.52 1021.47 515.036 1021.47 557.876C1021.47 819.543 809.344 1031.67 547.677 1031.67C286.007 1031.67 73.8815 819.543 73.8815 557.876C73.8815 515.357 79.4825 474.142 89.9875 434.936C140.512 229.11 326.258 76.4186 547.667 76.4186C768.756 76.4186 954.285 228.672 1005.13 434.05Z" fill="#CDCDCD"/>
</svg>
