<svg width="83" height="83" viewBox="0 0 83 83" fill="none" xmlns="http://www.w3.org/2000/svg">
<circle cx="41.5" cy="41.5" r="41.5" fill="#EFEFEF"/>
<path d="M52.974 47.245C55.4523 47.245 57.4612 49.2538 57.4612 51.7321V52.8802C57.4612 54.6646 56.8235 56.3901 55.6632 57.7456C52.5319 61.4039 47.7688 63.2093 41.4931 63.2093C35.2163 63.2093 30.4556 61.4033 27.3304 57.7435C26.1736 56.3889 25.5381 54.666 25.5381 52.8846V51.7321C25.5381 49.2538 27.547 47.245 30.0252 47.245H52.974ZM52.974 50.2379H30.0252C29.1999 50.2379 28.531 50.9069 28.531 51.7321V52.8846C28.531 53.9535 28.9123 54.9872 29.6063 55.7999C32.107 58.7283 36.0294 60.2164 41.4931 60.2164C46.9567 60.2164 50.8826 58.7283 53.3894 55.7995C54.0858 54.986 54.4683 53.9507 54.4683 52.8802V51.7321C54.4683 50.9069 53.7993 50.2379 52.974 50.2379ZM41.4931 23.3113C47.0028 23.3113 51.4694 27.7778 51.4694 33.2876C51.4694 38.7973 47.0028 43.2639 41.4931 43.2639C35.9833 43.2639 31.5168 38.7973 31.5168 33.2876C31.5168 27.7778 35.9833 23.3113 41.4931 23.3113ZM41.4931 26.3042C37.6363 26.3042 34.5097 29.4307 34.5097 33.2876C34.5097 37.1444 37.6363 40.271 41.4931 40.271C45.35 40.271 48.4765 37.1444 48.4765 33.2876C48.4765 29.4307 45.35 26.3042 41.4931 26.3042Z" fill="#979797"/>
</svg>
